<?xml version="1.0" encoding="UTF-8" standalone="no"?> <svg xmlns="http://www.w3.org/2000/svg" viewBox="0 0 64 64"><defs><style>.cls-1{fill:#ff6b6b;}</style></defs><g id="Layer_68" data-name="Layer 68"><path class="cls-1" d="M32,3.4h0A28.59,28.59,0,0,0,3.4,32h0A28.59,28.59,0,0,0,32,60.6h0A28.59,28.59,0,0,0,60.6,32h0A28.59,28.59,0,0,0,32,3.4Zm16,48H17.8A3.4,3.4,0,0,1,14.4,48V28.86h37V48A3.4,3.4,0,0,1,48,51.4ZM13.89,25.79l-.5-2.36a2.24,2.24,0,0,1,1.69-2.64h0l2.19-.51Zm5-5.88,4.72-1.09L19,26.46l-4.69,1.07v0Zm27.14.32,3.34-5.45c.06.13,1,4.45,1,4.45Zm-1.64.38-4.72,1.08,4.68-7.63,2.46-.57a4,4,0,0,1,1.74.32Zm-6.36,1.46-4.73,1.08L38,15.52l4.73-1.09Zm-6.37,1.46L27,24.62,31.63,17l4.73-1.09ZM25.31,25l-4.73,1.09,4.69-7.64L30,17.36Z"/></g></svg>